<svg width="24" height="24" viewBox="0 0 24 24" fill="none" xmlns="http://www.w3.org/2000/svg">
<g id="pause" clip-path="url(#clip0_53_25)">
<g id="Vector" filter="url(#filter0_d_53_25)">
<path fill-rule="evenodd" clip-rule="evenodd" d="M11.75 1C5.81294 1 1 5.81294 1 11.75C1 17.6871 5.81294 22.5 11.75 22.5C17.6871 22.5 22.5 17.6871 22.5 11.75C22.5 5.81294 17.6871 1 11.75 1ZM2.5 11.75C2.5 6.64137 6.64137 2.5 11.75 2.5C16.8586 2.5 21 6.64137 21 11.75C21 16.8586 16.8586 21 11.75 21C6.64137 21 2.5 16.8586 2.5 11.75Z" fill="white"/>
</g>
<g id="Group 18">
<g id="Line 3" filter="url(#filter1_d_53_25)">
<path d="M9.25 8.25L9.25 15.25" stroke="white" stroke-width="2" stroke-linecap="round"/>
</g>
<g id="Line 4" filter="url(#filter2_d_53_25)">
<path d="M14.25 8.25L14.25 15.25" stroke="white" stroke-width="2" stroke-linecap="round"/>
</g>
</g>
</g>
<defs>
<filter id="filter0_d_53_25" x="-3" y="1" width="29.5" height="29.5" filterUnits="userSpaceOnUse" color-interpolation-filters="sRGB">
<feFlood flood-opacity="0" result="BackgroundImageFix"/>
<feColorMatrix in="SourceAlpha" type="matrix" values="0 0 0 0 0 0 0 0 0 0 0 0 0 0 0 0 0 0 127 0" result="hardAlpha"/>
<feOffset dy="4"/>
<feGaussianBlur stdDeviation="2"/>
<feComposite in2="hardAlpha" operator="out"/>
<feColorMatrix type="matrix" values="0 0 0 0 0 0 0 0 0 0 0 0 0 0 0 0 0 0 0.25 0"/>
<feBlend mode="normal" in2="BackgroundImageFix" result="effect1_dropShadow_53_25"/>
<feBlend mode="normal" in="SourceGraphic" in2="effect1_dropShadow_53_25" result="shape"/>
</filter>
<filter id="filter1_d_53_25" x="4.25" y="7.25" width="10" height="17" filterUnits="userSpaceOnUse" color-interpolation-filters="sRGB">
<feFlood flood-opacity="0" result="BackgroundImageFix"/>
<feColorMatrix in="SourceAlpha" type="matrix" values="0 0 0 0 0 0 0 0 0 0 0 0 0 0 0 0 0 0 127 0" result="hardAlpha"/>
<feOffset dy="4"/>
<feGaussianBlur stdDeviation="2"/>
<feComposite in2="hardAlpha" operator="out"/>
<feColorMatrix type="matrix" values="0 0 0 0 0 0 0 0 0 0 0 0 0 0 0 0 0 0 0.25 0"/>
<feBlend mode="normal" in2="BackgroundImageFix" result="effect1_dropShadow_53_25"/>
<feBlend mode="normal" in="SourceGraphic" in2="effect1_dropShadow_53_25" result="shape"/>
</filter>
<filter id="filter2_d_53_25" x="9.25" y="7.25" width="10" height="17" filterUnits="userSpaceOnUse" color-interpolation-filters="sRGB">
<feFlood flood-opacity="0" result="BackgroundImageFix"/>
<feColorMatrix in="SourceAlpha" type="matrix" values="0 0 0 0 0 0 0 0 0 0 0 0 0 0 0 0 0 0 127 0" result="hardAlpha"/>
<feOffset dy="4"/>
<feGaussianBlur stdDeviation="2"/>
<feComposite in2="hardAlpha" operator="out"/>
<feColorMatrix type="matrix" values="0 0 0 0 0 0 0 0 0 0 0 0 0 0 0 0 0 0 0.25 0"/>
<feBlend mode="normal" in2="BackgroundImageFix" result="effect1_dropShadow_53_25"/>
<feBlend mode="normal" in="SourceGraphic" in2="effect1_dropShadow_53_25" result="shape"/>
</filter>
<clipPath id="clip0_53_25">
<rect width="24" height="24" fill="white"/>
</clipPath>
</defs>
</svg>
