<svg width="24" height="24" viewBox="0 0 24 24" fill="none" xmlns="http://www.w3.org/2000/svg">
<g id="settings" clip-path="url(#clip0_53_76)">
<g id="Vector" filter="url(#filter0_d_53_76)">
<path d="M17.7285 4.29267V6.03536C16.8141 6.17656 16.1118 6.9689 16.1118 7.92218C16.1118 8.87547 16.8141 9.66775 17.7285 9.80901V20.3581C17.7285 20.5197 17.8594 20.6508 18.0211 20.6508C18.1827 20.6508 18.3138 20.5197 18.3138 20.3581V9.80901C19.2281 9.66774 19.9304 8.87547 19.9304 7.92218C19.9304 6.9689 19.2281 6.17655 18.3138 6.03536V4.29267C18.3138 4.13106 18.1827 4 18.0211 4C17.8594 3.99999 17.7285 4.13106 17.7285 4.29267ZM19.3451 7.92218C19.3451 8.55162 18.9034 9.07946 18.3138 9.21314C18.2195 9.23445 18.1217 9.24613 18.0211 9.24613C17.9205 9.24613 17.8227 9.23445 17.7285 9.21314C17.1388 9.07945 16.6972 8.55162 16.6972 7.92218C16.6972 7.29267 17.1388 6.76482 17.7285 6.63122C17.8227 6.60982 17.9205 6.59823 18.0211 6.59823C18.1217 6.59823 18.2195 6.60982 18.3138 6.63122C18.9034 6.76482 19.3451 7.29267 19.3451 7.92218Z" fill="white"/>
<path d="M7.20195 20.3581V9.80901C8.11638 9.66774 8.81865 8.87547 8.81865 7.92218C8.81865 6.9689 8.11638 6.17655 7.20195 6.03536V4.29267C7.20195 4.13106 7.07097 4 6.90929 4C6.74768 4 6.61662 4.13106 6.61662 4.29267V6.03536C5.70228 6.17655 5 6.9689 5 7.92218C5 8.87547 5.70228 9.66775 6.61661 9.80901V20.3581C6.61661 20.5197 6.74768 20.6508 6.90928 20.6508C7.07097 20.6508 7.20195 20.5197 7.20195 20.3581ZM5.58534 7.92218C5.58534 7.29267 6.02704 6.76482 6.61661 6.63122C6.71085 6.60982 6.80876 6.59823 6.90928 6.59823C7.00988 6.59823 7.10771 6.60982 7.20194 6.63122C7.79161 6.76482 8.23331 7.29267 8.23331 7.92218C8.23331 8.55162 7.79161 9.07946 7.20194 9.21314C7.1077 9.23445 7.00988 9.24613 6.90928 9.24613C6.80876 9.24613 6.71084 9.23445 6.61661 9.21314C6.02704 9.07946 5.58534 8.55162 5.58534 7.92218Z" fill="white"/>
<path d="M12.7579 20.3581V17.1357C13.6722 16.9944 14.3745 16.2021 14.3745 15.2488C14.3745 14.2955 13.6722 13.5032 12.7579 13.362V4.29267C12.7579 4.13106 12.6269 4 12.4652 4C12.3036 4 12.1726 4.13106 12.1726 4.29267V13.362C11.2582 13.5032 10.5559 14.2955 10.5559 15.2488C10.5559 16.2021 11.2582 16.9944 12.1726 17.1356V20.3581C12.1726 20.5197 12.3036 20.6508 12.4652 20.6508C12.6269 20.6508 12.7579 20.5197 12.7579 20.3581ZM11.1412 15.2488C11.1412 14.6193 11.5829 14.0915 12.1726 13.9579C12.2668 13.9365 12.3646 13.9249 12.4652 13.9249C12.5658 13.9249 12.6637 13.9365 12.7579 13.9579C13.3475 14.0915 13.7892 14.6193 13.7892 15.2488C13.7892 15.8783 13.3475 16.4061 12.7579 16.5398C12.6637 16.5611 12.5658 16.5728 12.4652 16.5728C12.3646 16.5728 12.2668 16.5611 12.1726 16.5398C11.5829 16.4061 11.1412 15.8783 11.1412 15.2488Z" fill="white"/>
<path d="M17.7285 4.29267V6.03536C16.8141 6.17656 16.1118 6.9689 16.1118 7.92218C16.1118 8.87547 16.8141 9.66775 17.7285 9.80901V20.3581C17.7285 20.5197 17.8594 20.6508 18.0211 20.6508C18.1827 20.6508 18.3138 20.5197 18.3138 20.3581V9.80901C19.2281 9.66774 19.9304 8.87547 19.9304 7.92218C19.9304 6.9689 19.2281 6.17655 18.3138 6.03536V4.29267C18.3138 4.13106 18.1827 4 18.0211 4C17.8594 3.99999 17.7285 4.13106 17.7285 4.29267ZM19.3451 7.92218C19.3451 8.55162 18.9034 9.07946 18.3138 9.21314C18.2195 9.23445 18.1217 9.24613 18.0211 9.24613C17.9205 9.24613 17.8227 9.23445 17.7285 9.21314C17.1388 9.07945 16.6972 8.55162 16.6972 7.92218C16.6972 7.29267 17.1388 6.76482 17.7285 6.63122C17.8227 6.60982 17.9205 6.59823 18.0211 6.59823C18.1217 6.59823 18.2195 6.60982 18.3138 6.63122C18.9034 6.76482 19.3451 7.29267 19.3451 7.92218Z" stroke="white" stroke-width="0.5"/>
<path d="M7.20195 20.3581V9.80901C8.11638 9.66774 8.81865 8.87547 8.81865 7.92218C8.81865 6.9689 8.11638 6.17655 7.20195 6.03536V4.29267C7.20195 4.13106 7.07097 4 6.90929 4C6.74768 4 6.61662 4.13106 6.61662 4.29267V6.03536C5.70228 6.17655 5 6.9689 5 7.92218C5 8.87547 5.70228 9.66775 6.61661 9.80901V20.3581C6.61661 20.5197 6.74768 20.6508 6.90928 20.6508C7.07097 20.6508 7.20195 20.5197 7.20195 20.3581ZM5.58534 7.92218C5.58534 7.29267 6.02704 6.76482 6.61661 6.63122C6.71085 6.60982 6.80876 6.59823 6.90928 6.59823C7.00988 6.59823 7.10771 6.60982 7.20194 6.63122C7.79161 6.76482 8.23331 7.29267 8.23331 7.92218C8.23331 8.55162 7.79161 9.07946 7.20194 9.21314C7.1077 9.23445 7.00988 9.24613 6.90928 9.24613C6.80876 9.24613 6.71084 9.23445 6.61661 9.21314C6.02704 9.07946 5.58534 8.55162 5.58534 7.92218Z" stroke="white" stroke-width="0.5"/>
<path d="M12.7579 20.3581V17.1357C13.6722 16.9944 14.3745 16.2021 14.3745 15.2488C14.3745 14.2955 13.6722 13.5032 12.7579 13.362V4.29267C12.7579 4.13106 12.6269 4 12.4652 4C12.3036 4 12.1726 4.13106 12.1726 4.29267V13.362C11.2582 13.5032 10.5559 14.2955 10.5559 15.2488C10.5559 16.2021 11.2582 16.9944 12.1726 17.1356V20.3581C12.1726 20.5197 12.3036 20.6508 12.4652 20.6508C12.6269 20.6508 12.7579 20.5197 12.7579 20.3581ZM11.1412 15.2488C11.1412 14.6193 11.5829 14.0915 12.1726 13.9579C12.2668 13.9365 12.3646 13.9249 12.4652 13.9249C12.5658 13.9249 12.6637 13.9365 12.7579 13.9579C13.3475 14.0915 13.7892 14.6193 13.7892 15.2488C13.7892 15.8783 13.3475 16.4061 12.7579 16.5398C12.6637 16.5611 12.5658 16.5728 12.4652 16.5728C12.3646 16.5728 12.2668 16.5611 12.1726 16.5398C11.5829 16.4061 11.1412 15.8783 11.1412 15.2488Z" stroke="white" stroke-width="0.5"/>
</g>
</g>
<defs>
<filter id="filter0_d_53_76" x="0.75" y="3.75" width="23.4307" height="25.1508" filterUnits="userSpaceOnUse" color-interpolation-filters="sRGB">
<feFlood flood-opacity="0" result="BackgroundImageFix"/>
<feColorMatrix in="SourceAlpha" type="matrix" values="0 0 0 0 0 0 0 0 0 0 0 0 0 0 0 0 0 0 127 0" result="hardAlpha"/>
<feOffset dy="4"/>
<feGaussianBlur stdDeviation="2"/>
<feComposite in2="hardAlpha" operator="out"/>
<feColorMatrix type="matrix" values="0 0 0 0 0 0 0 0 0 0 0 0 0 0 0 0 0 0 0.25 0"/>
<feBlend mode="normal" in2="BackgroundImageFix" result="effect1_dropShadow_53_76"/>
<feBlend mode="normal" in="SourceGraphic" in2="effect1_dropShadow_53_76" result="shape"/>
</filter>
<clipPath id="clip0_53_76">
<rect width="24" height="24" fill="white"/>
</clipPath>
</defs>
</svg>
