<svg width="24" height="24" viewBox="0 0 24 24" fill="none" xmlns="http://www.w3.org/2000/svg">
<g id="sound" clip-path="url(#clip0_53_72)">
<g id="Vector" filter="url(#filter0_d_53_72)">
<path fill-rule="evenodd" clip-rule="evenodd" d="M12.4918 6.5158C11.8967 6.80493 11.1424 7.30068 10.0676 8.00936L9.88513 8.12966C9.87125 8.13882 9.85754 8.14785 9.84402 8.15677C9.52719 8.36577 9.30776 8.51051 9.06731 8.61663C8.83034 8.72121 8.5813 8.79592 8.3259 8.83905C8.06674 8.88282 7.80387 8.88276 7.42432 8.88268C7.40812 8.88268 7.3917 8.88267 7.37507 8.88267C6.17201 8.88267 5.76593 8.89624 5.42067 9.05598C5.08704 9.21034 4.7317 9.54467 4.55733 9.8683C4.37543 10.2059 4.34204 10.5519 4.27783 11.6054C4.26021 11.8945 4.25 12.1716 4.25 12.4243C4.25 12.6771 4.26021 12.9541 4.27783 13.2433C4.34204 14.2968 4.37543 14.6428 4.55733 14.9804C4.7317 15.304 5.08704 15.6383 5.42067 15.7927C5.76593 15.9525 6.17201 15.966 7.37507 15.966C7.3917 15.966 7.40811 15.966 7.42431 15.966C7.80387 15.9659 8.06674 15.9659 8.3259 16.0096C8.5813 16.0527 8.83034 16.1275 9.06731 16.2321C9.30776 16.3381 9.52719 16.4829 9.84402 16.6919C9.85754 16.7008 9.87124 16.7099 9.88513 16.7191L10.0676 16.8393C11.1424 17.548 11.8967 18.0437 12.4918 18.3329C13.0854 18.6212 13.3823 18.6328 13.5898 18.5619C13.7043 18.5229 13.8164 18.4658 13.9154 18.3963C14.0959 18.2694 14.2605 18.0239 14.3763 17.3811C14.4925 16.7354 14.5353 15.8421 14.5946 14.5665C14.638 13.6335 14.6667 12.8508 14.6667 12.4243C14.6667 11.9979 14.638 11.2151 14.5946 10.2822C14.5353 9.00657 14.4925 8.11329 14.3763 7.46755C14.2605 6.82475 14.0959 6.57927 13.9154 6.4524C13.8164 6.38284 13.7043 6.32582 13.5898 6.28675C13.3823 6.21589 13.0854 6.22745 12.4918 6.5158ZM11.9457 5.39144C12.634 5.05705 13.3118 4.87107 13.9936 5.10374C14.2202 5.18106 14.4383 5.29205 14.6341 5.4297C15.2225 5.8432 15.4716 6.49654 15.6065 7.24608C15.7392 7.98305 15.7845 8.95967 15.841 10.1762L15.8433 10.2242C15.8864 11.1533 15.9167 11.9643 15.9167 12.4243C15.9167 12.8843 15.8864 13.6954 15.8433 14.6245L15.841 14.6724C15.7845 15.889 15.7392 16.8656 15.6065 17.6026C15.4716 18.3521 15.2225 19.0055 14.6341 19.419C14.4383 19.5566 14.2202 19.6676 13.9936 19.745C13.3118 19.9776 12.634 19.7917 11.9457 19.4572C11.2677 19.1279 10.4451 18.5855 9.41939 17.9092L9.19706 17.7626C8.8238 17.5165 8.6954 17.4342 8.56261 17.3757C8.42043 17.3129 8.271 17.2681 8.11777 17.2422C7.97463 17.218 7.82217 17.216 7.37507 17.216C7.32974 17.216 7.28503 17.2161 7.24089 17.2161C6.22679 17.2166 5.52216 17.217 4.8958 16.9271C4.3168 16.6593 3.75951 16.1349 3.4569 15.5733C3.12972 14.9661 3.09133 14.3311 3.03674 13.4281C3.03457 13.3922 3.03238 13.3561 3.03015 13.3194C3.01144 13.0125 3 12.709 3 12.4243C3 12.1397 3.01144 11.8362 3.03015 11.5293C3.03238 11.4926 3.03457 11.4564 3.03674 11.4206C3.09133 10.5176 3.12972 9.88262 3.4569 9.27538C3.75951 8.71375 4.3168 8.1894 4.8958 7.92152C5.52216 7.63172 6.22679 7.63209 7.24088 7.63263C7.28503 7.63265 7.32974 7.63267 7.37507 7.63267C7.82217 7.63267 7.97463 7.63067 8.11777 7.6065C8.271 7.58062 8.42043 7.53579 8.56261 7.47305C8.6954 7.41444 8.8238 7.33219 9.19706 7.08607L9.4194 6.93948C10.4451 6.26317 11.2677 5.72078 11.9457 5.39144ZM18.6416 6.94438C18.9068 6.7234 19.3008 6.75923 19.5218 7.02441L19.0417 7.42452C19.5218 7.02441 19.5218 7.02441 19.5218 7.02441L19.5228 7.02555L19.5238 7.02684L19.5263 7.02985L19.5326 7.03757C19.5373 7.04348 19.5432 7.05093 19.5502 7.05992C19.5641 7.0779 19.5822 7.10207 19.604 7.13253C19.6475 7.19348 19.7055 7.27965 19.7729 7.39202C19.9078 7.61687 20.0802 7.94617 20.25 8.38766C20.5902 9.27213 20.9167 10.5982 20.9167 12.4245C20.9167 14.2508 20.5902 15.5769 20.25 16.4614C20.0802 16.9029 19.9078 17.2321 19.7729 17.457C19.7055 17.5694 19.6475 17.6556 19.604 17.7165C19.5822 17.747 19.5641 17.7711 19.5502 17.7891C19.546 17.7945 19.5423 17.7993 19.5388 17.8036C19.5366 17.8065 19.5345 17.8091 19.5326 17.8115L19.5263 17.8192L19.5238 17.8222L19.5228 17.8235C19.5228 17.8235 19.5218 17.8246 19.0417 17.4245L19.5218 17.8246C19.3008 18.0898 18.9068 18.1257 18.6416 17.9047C18.3777 17.6847 18.3409 17.2934 18.5583 17.0282M18.5583 17.0282C18.5583 17.0282 18.5598 17.0263 18.5613 17.0245C18.5657 17.0188 18.5744 17.0073 18.5868 16.99C18.6116 16.9552 18.6512 16.8968 18.7011 16.8139C18.8005 16.6481 18.9407 16.3836 19.0833 16.0126C19.3682 15.2721 19.6667 14.0982 19.6667 12.4245C19.6667 10.7508 19.3682 9.57691 19.0833 8.83638C18.9407 8.46537 18.8005 8.20092 18.7011 8.03514C18.6512 7.95221 18.6116 7.89384 18.5868 7.85908C18.5744 7.8417 18.5657 7.83022 18.5613 7.82452C18.5598 7.82267 18.5583 7.8208 18.5583 7.8208L18.5613 7.82452L18.56 7.82275L18.5583 7.8208C18.3409 7.55567 18.3777 7.16429 18.6416 6.94438M17.0715 9.37817C17.3733 9.21054 17.7538 9.31925 17.9213 9.62099L17.398 9.91173C17.9213 9.621 17.9213 9.62099 17.9213 9.62099L17.9219 9.62208L17.9226 9.62325L17.924 9.62578L17.9272 9.63172L17.9353 9.64701C17.9413 9.65873 17.9487 9.67353 17.9572 9.69146C17.9743 9.72731 17.9959 9.77564 18.0204 9.83693C18.0694 9.95957 18.1299 10.1337 18.1888 10.363C18.3065 10.8221 18.4167 11.4994 18.4167 12.4245C18.4167 13.3496 18.3065 14.0269 18.1888 14.486C18.1299 14.7153 18.0694 14.8895 18.0204 15.0121C17.9959 15.0734 17.9743 15.1217 17.9572 15.1576C17.9487 15.1755 17.9413 15.1903 17.9353 15.2021L17.9272 15.2173L17.924 15.2232L17.9226 15.2258L17.9219 15.227C17.9219 15.227 17.9213 15.2281 17.398 14.9373L17.9213 15.2281C17.7538 15.5298 17.3733 15.6385 17.0715 15.4709C16.7723 15.3046 16.6629 14.9291 16.8244 14.6287L16.8286 14.6201C16.8343 14.6081 16.8453 14.5842 16.8598 14.5479C16.8889 14.4752 16.9326 14.3524 16.9779 14.1756C17.0685 13.8221 17.1667 13.2494 17.1667 12.4245C17.1667 11.5996 17.0685 11.0269 16.9779 10.6735C16.9326 10.4966 16.8889 10.3738 16.8598 10.3012C16.8453 10.2648 16.8343 10.2409 16.8286 10.2289L16.8244 10.2203C16.6629 9.91986 16.7723 9.54438 17.0715 9.37817Z" fill="white"/>
</g>
</g>
<defs>
<filter id="filter0_d_53_72" x="-1" y="5" width="25.917" height="22.8488" filterUnits="userSpaceOnUse" color-interpolation-filters="sRGB">
<feFlood flood-opacity="0" result="BackgroundImageFix"/>
<feColorMatrix in="SourceAlpha" type="matrix" values="0 0 0 0 0 0 0 0 0 0 0 0 0 0 0 0 0 0 127 0" result="hardAlpha"/>
<feOffset dy="4"/>
<feGaussianBlur stdDeviation="2"/>
<feComposite in2="hardAlpha" operator="out"/>
<feColorMatrix type="matrix" values="0 0 0 0 0 0 0 0 0 0 0 0 0 0 0 0 0 0 0.25 0"/>
<feBlend mode="normal" in2="BackgroundImageFix" result="effect1_dropShadow_53_72"/>
<feBlend mode="normal" in="SourceGraphic" in2="effect1_dropShadow_53_72" result="shape"/>
</filter>
<clipPath id="clip0_53_72">
<rect width="24" height="24" fill="white"/>
</clipPath>
</defs>
</svg>
